HIERARCHY
ROOT Pelvis
{
	OFFSET 0.000000 0.000000 0.000000
	CHANNELS 6 Xposition Yposition Zposition Xrotation Yrotation Zrotation
	JOINT LeftUpLeg_virtual
	{
		OFFSET 0.000000 0.000000 0.000000
		CHANNELS 3 Xrotation Yrotation Zrotation
		JOINT LeftUpLeg
		{
			OFFSET 18.735201 -5.666702 -4.541200
			CHANNELS 3 Xrotation Yrotation Zrotation
			JOINT LeftLeg
			{
				OFFSET -0.021200 -31.938179 0.493100
				CHANNELS 3 Xrotation Yrotation Zrotation
				JOINT LeftFoot
				{
					OFFSET 0.021200 -31.938179 -4.336299
					CHANNELS 3 Xrotation Yrotation Zrotation
					JOINT LeftToeBase
					{
						OFFSET 0.943001 -26.722000 15.023500
						CHANNELS 3 Xrotation Yrotation Zrotation
						End Site
						{
							OFFSET 0 0 0
						}
					}
				}
			}
		}
	}
	JOINT RightUpLeg_virtual
	{
		OFFSET 0.000000 0.000000 0.000000
		CHANNELS 3 Xrotation Yrotation Zrotation
		JOINT RightUpLeg
		{
			OFFSET -18.735201 -5.666702 -4.541200
			CHANNELS 3 Xrotation Yrotation Zrotation
			JOINT RightLeg
			{
				OFFSET 0.018946 -31.938133 0.493100
				CHANNELS 3 Xrotation Yrotation Zrotation
				JOINT RightFoot
				{
					OFFSET -0.018946 -31.938126 -4.336299
					CHANNELS 3 Xrotation Yrotation Zrotation
					JOINT RightToeBase
					{
						OFFSET -0.943001 -26.722004 15.023500
						CHANNELS 3 Xrotation Yrotation Zrotation
						End Site
						{
							OFFSET 0 0 0
						}
					}
				}
			}
		}
	}
	JOINT Hips_virtual
	{
		OFFSET 0.000000 0.000000 0.000000
		CHANNELS 3 Xrotation Yrotation Zrotation
		JOINT Hips
		{
			OFFSET -0.000000 -0.000000 -0.000000
			CHANNELS 3 Xrotation Yrotation Zrotation
			JOINT Spine
			{
				OFFSET 0.000000 10.199997 -0.299500
				CHANNELS 3 Xrotation Yrotation Zrotation
				JOINT Spine1
				{
					OFFSET 0.000000 11.900002 -1.516600
					CHANNELS 3 Xrotation Yrotation Zrotation
					JOINT Spine2
					{
						OFFSET 0.000000 13.600006 -2.842500
						CHANNELS 3 Xrotation Yrotation Zrotation
						JOINT Neck_virtual
						{
							OFFSET 0.000000 0.000000 0.000000
							CHANNELS 3 Xrotation Yrotation Zrotation
							JOINT Neck
							{
								OFFSET 0.000000 9.624100 -2.890100
								CHANNELS 3 Xrotation Yrotation Zrotation
								JOINT Head
								{
									OFFSET 0.000000 14.068802 -1.351900
									CHANNELS 3 Xrotation Yrotation Zrotation
									End Site
									{
										OFFSET 0 0 0
									}
								}
							}
						}
						JOINT LeftShoulder_virtual
						{
							OFFSET 0.000000 0.000000 0.000000
							CHANNELS 3 Xrotation Yrotation Zrotation
							JOINT LeftShoulder
							{
								OFFSET 15.263000 10.923401 -0.547700
								CHANNELS 3 Xrotation Yrotation Zrotation
								JOINT LeftArm
								{
									OFFSET 25.438599 -2.830597 -13.032500
									CHANNELS 3 Xrotation Yrotation Zrotation
									JOINT LeftForeArm
									{
										OFFSET 29.960503 0.000000 0.000000
										CHANNELS 3 Xrotation Yrotation Zrotation
										JOINT LeftHand
										{
											OFFSET 27.849251 0.000000 0.000000
											CHANNELS 3 Xrotation Yrotation Zrotation
											End Site
											{
												OFFSET 0 0 0
											}
										}
									}
								}
							}
						}
						JOINT RightShoulder_virtual
						{
							OFFSET 0.000000 0.000000 0.000000
							CHANNELS 3 Xrotation Yrotation Zrotation
							JOINT RightShoulder
							{
								OFFSET -15.263000 10.923401 -0.547700
								CHANNELS 3 Xrotation Yrotation Zrotation
								JOINT RightArm
								{
									OFFSET -25.438599 -2.830597 -13.032500
									CHANNELS 3 Xrotation Yrotation Zrotation
									JOINT RightForeArm
									{
										OFFSET -29.960503 0.000000 0.000000
										CHANNELS 3 Xrotation Yrotation Zrotation
										JOINT RightHand
										{
											OFFSET -27.849251 0.000000 0.000000
											CHANNELS 3 Xrotation Yrotation Zrotation
											End Site
											{
												OFFSET 0 0 0
											}
										}
									}
								}
							}
						}
					}
				}
			}
		}
	}
}
MOTION
Frames: 9
Frame Time: 0.03333333
-11.267172 72.272888 1.388632 0.000000 0.000000 0.000000 -2.901985 4.705133 -0.024820 -72.865407 -8.572826 4.557017 60.404281 -19.731686 -9.168387 11.542536 -4.049540 -4.934144 0.000000 0.000000 0.000000 -2.901985 4.705133 -0.024820 -11.219019 -2.465822 -4.556444 86.248815 -9.792814 -6.787504 -41.850820 -3.322109 19.869348 0.000000 0.000000 0.000000 -2.901985 4.705133 -0.024820 0.000000 0.000000 0.000000 8.953664 0.270738 -1.351172 3.966864 0.230935 -3.978306 0.000000 0.000000 0.000000 3.989347 0.231038 -3.977842 0.874941 -1.742024 2.141496 0.000000 0.000000 0.000000 3.989347 0.231038 -3.977842 -8.173990 -31.527989 -8.252504 -31.588559 -14.766833 -24.997731 -124.594467 -59.639655 -127.258637 0.000000 0.000000 0.000000 3.989347 0.231038 -3.977842 -8.947958 32.923240 10.353823 -34.168414 8.238677 31.408854 -129.897166 61.687680 135.132479 0.000000 0.000000 0.000000 
-11.406328 73.777847 1.706547 0.000000 0.000000 0.000000 -0.962198 6.226955 0.174588 -71.585997 -8.351559 2.939978 55.691549 -19.488628 -8.288756 12.774067 -3.854085 -5.957364 0.000000 0.000000 0.000000 -0.962198 6.226955 0.174588 -10.606439 -3.800287 -3.724194 81.515985 -10.598476 -7.074416 -41.438525 -2.811008 18.871401 0.000000 0.000000 0.000000 -0.962198 6.226955 0.174588 0.000000 0.000000 0.000000 8.258307 0.184951 -1.487995 2.568483 -0.078458 -4.312726 0.000000 0.000000 0.000000 2.590949 -0.078385 -4.312242 -0.109961 -1.916566 1.903071 0.000000 0.000000 0.000000 2.590949 -0.078385 -4.312242 -8.485027 -28.820475 -9.252587 -25.663307 -15.710627 -18.176243 -134.370284 -56.428964 -136.822568 0.000000 0.000000 0.000000 2.590949 -0.078385 -4.312242 -8.020588 29.104092 7.655827 -24.846568 11.304225 29.134551 -147.298029 58.854968 149.572564 0.000000 0.000000 0.000000 
-11.526863 75.370453 2.059206 0.000000 0.000000 0.000000 1.147548 7.639501 0.285972 -70.105424 -8.284419 1.294564 50.554195 -19.187301 -7.174070 14.105291 -3.652016 -7.101367 0.000000 0.000000 0.000000 1.147548 7.639501 0.285972 -10.367816 -4.639026 -2.727079 76.589500 -11.516665 -7.431216 -40.151021 -2.304246 18.126487 0.000000 0.000000 0.000000 1.147548 7.639501 0.285972 0.000000 0.000000 0.000000 7.511664 0.072388 -1.603839 1.064139 -0.427327 -4.603812 0.000000 0.000000 0.000000 1.086616 -0.427256 -4.603352 -1.245272 -2.036249 1.598583 0.000000 0.000000 0.000000 1.086616 -0.427256 -4.603352 -8.676804 -25.765731 -10.075467 -18.326608 -15.006474 -10.670912 -143.139933 -54.309573 -144.303811 0.000000 0.000000 0.000000 1.086616 -0.427256 -4.603352 -7.681963 25.388558 6.444245 -12.655750 14.347770 25.486337 -174.509366 58.206353 170.828359 0.000000 0.000000 0.000000 
-11.704720 78.115044 2.713560 0.000000 0.000000 0.000000 4.073644 9.275290 0.504832 -66.432606 -8.458212 -0.938611 41.506260 -18.924989 -5.204911 16.321084 -2.917347 -9.023949 0.000000 0.000000 0.000000 4.073644 9.275290 0.504832 -9.469503 -5.638894 -1.544826 67.976221 -12.733266 -8.253959 -37.082033 -1.461702 17.360737 0.000000 0.000000 0.000000 4.073644 9.275290 0.504832 0.000000 0.000001 0.000000 6.670317 -0.046933 -1.717054 -0.631354 -0.805339 -4.887749 0.000000 0.000000 0.000000 -0.608884 -0.805301 -4.887262 -2.888440 -1.913231 1.381229 0.000000 0.000000 0.000000 -0.608884 -0.805301 -4.887262 -8.036798 -21.485212 -9.500184 -14.726077 -11.896507 -5.740293 -146.957175 -62.475276 -145.446365 0.000000 0.000000 0.000000 -0.608884 -0.805301 -4.887262 -7.296016 21.402408 5.049862 -4.773013 12.248318 21.979737 165.199081 63.767514 -171.916763 0.000000 0.000000 0.000000 
-11.880116 80.812103 3.574329 0.000000 0.000000 0.000000 6.227289 10.457490 0.730478 -61.543208 -9.004925 -2.536394 31.966242 -18.380725 -3.359759 18.708318 -2.651241 -10.672007 0.000000 0.000000 0.000000 6.227289 10.457490 0.730478 -7.774873 -6.668601 -0.580531 58.969408 -13.706812 -9.527238 -32.799719 -0.597072 17.152217 0.000000 0.000000 0.000000 6.227289 10.457490 0.730478 0.000000 0.000000 0.000000 6.032421 -0.041079 -1.801313 -1.909139 -0.850890 -5.060078 0.000000 0.000000 0.000000 -1.886655 -0.850854 -5.059593 -4.589942 -1.693004 1.181253 0.000000 0.000000 0.000000 -1.886655 -0.850854 -5.059593 -7.298172 -17.415329 -8.034948 -14.064197 -8.494672 -2.706171 -146.039949 -74.946259 -142.967935 0.000000 0.000000 0.000000 -1.886655 -0.850854 -5.059593 -7.063745 17.810816 3.824991 -0.653492 7.660502 19.416993 140.340074 70.312126 -146.961478 0.000000 0.000000 0.000000 
-12.041977 83.387329 4.685886 0.000000 0.000000 0.000000 7.618576 11.028562 0.778042 -55.668507 -9.630288 -2.993785 22.172206 -17.624007 -1.978656 21.352380 -3.199652 -11.727973 0.000000 0.000000 0.000000 7.618576 11.028562 0.778042 -5.341719 -7.642249 0.708652 49.447557 -14.817008 -11.567989 -27.088819 0.748908 17.624424 0.000000 0.000000 0.000000 7.618576 11.028562 0.778042 0.000001 0.000000 0.000000 5.460916 0.101764 -1.829685 -3.041139 -0.526846 -5.046612 0.000000 0.000000 0.000000 -3.018657 -0.526805 -5.046134 -6.296299 -1.408594 0.974902 0.000000 0.000000 0.000000 -3.018657 -0.526805 -5.046134 -6.651218 -13.502814 -6.091308 -14.996696 -4.896501 -0.947548 -42.586339 -87.858718 -39.725142 0.000000 0.000000 0.000000 -3.018657 -0.526805 -5.046134 -6.909964 14.522406 2.667818 1.310047 1.516603 17.537416 98.946171 73.565099 -103.010762 0.000000 0.000000 0.000000 
-12.130560 85.222359 5.936010 0.000000 0.000000 0.000000 8.552038 10.829908 0.478443 -50.869289 -9.692047 -2.106410 14.110022 -18.857480 -1.695233 24.698528 -2.581966 -13.214574 0.000000 0.000000 0.000000 8.552038 10.829908 0.478443 -3.224474 -8.527169 1.731924 41.676537 -15.076323 -13.280088 -21.576311 2.424288 17.987030 0.000000 0.000000 0.000000 8.552038 10.829908 0.478443 0.000000 0.000000 0.000000 4.933030 0.359932 -1.727097 -4.077861 0.059076 -4.730979 0.000000 0.000000 0.000000 -4.055390 0.059095 -4.730493 -7.962425 -1.091086 0.758187 0.000000 0.000000 0.000000 -4.055390 0.059095 -4.730493 -6.234566 -9.589494 -4.102895 -16.932473 -1.577843 0.230445 18.865584 -71.495442 19.254440 0.000000 0.000000 0.000000 -4.055390 0.059095 -4.730493 -6.827206 11.482304 1.525859 1.768700 -5.447525 15.892503 58.267756 68.104841 -58.040338 0.000000 0.000000 0.000000 
-12.140867 86.634872 7.033634 0.000000 0.000000 0.000000 8.774654 9.888425 -0.093224 -47.081758 -8.880721 -0.401775 9.000241 -19.758100 -1.765877 27.173614 -2.427369 -14.446770 0.000000 0.000000 0.000000 8.774654 9.888425 -0.093224 -2.428463 -9.555264 -0.263794 38.375134 -12.090415 -9.671626 -16.541076 3.754389 15.601330 0.000000 0.000000 0.000000 8.774654 9.888425 -0.093224 0.000001 0.000000 0.000000 4.734983 0.605843 -1.523379 -4.458891 0.655810 -4.131045 0.000000 0.000000 0.000000 -4.436418 0.655848 -4.130568 -9.539005 -0.776187 0.545184 0.000000 0.000000 0.000000 -4.436418 0.655848 -4.130568 -6.080564 -5.702850 -2.226141 -19.562732 1.233086 1.320469 22.936720 -53.658642 18.332494 0.000000 0.000000 0.000000 -4.436418 0.655848 -4.130568 -6.825158 8.671410 0.477289 1.231785 -12.764049 13.987415 37.945932 56.855690 -32.475736 0.000000 0.000000 0.000000 
-12.074430 87.813194 7.906067 0.000000 0.000000 0.000000 8.508916 7.971596 -1.051817 -47.062613 -7.371112 2.202056 11.944610 -20.275184 -2.527847 25.725453 -2.102448 -14.370173 0.000000 0.000000 0.000000 8.508916 7.971596 -1.051817 -2.880370 -10.583709 -0.270339 35.408599 -10.815544 -10.199899 -9.627240 4.613436 16.033698 0.000000 0.000000 0.000000 8.508916 7.971596 -1.051817 0.000000 -0.000001 0.000000 4.697252 0.847225 -1.243273 -4.526451 1.331907 -3.228477 0.000000 0.000000 0.000000 -4.503989 1.331914 -3.227987 -10.979597 -0.485706 0.344065 0.000000 0.000000 0.000000 -4.503989 1.331914 -3.227987 -6.136154 -1.923156 -0.288157 -22.618622 3.712884 2.278976 26.288643 -37.020657 14.152462 0.000000 0.000000 0.000000 -4.503989 1.331914 -3.227987 -6.866816 6.010464 -0.591216 0.149007 -19.940684 11.679594 28.572276 43.904743 -17.531861 0.000000 0.000000 0.000000 
